{"title":"Die Bett-Hostessen (1973) DVD5 PAL ","uid":11745124,"size":3168288768,"categoryP":"video","categoryS":"movies","magnet":"?xt=urn:btih:68a332b981a82441668a66fe0ab888ea871d4564&amp;dn=Die+Bett-Hostessen+%281973%29+DVD5+PAL+&amp;tr=udp%3A%2F%2Ftracker.openbittorrent.com%3A80&amp;tr=udp%3A%2F%2Fopen.demonii.com%3A1337&amp;tr=udp%3A%2F%2Ftracker.coppersurfer.tk%3A6969&amp;tr=udp%3A%2F%2Fexodus.desync.com%3A6969","seeders":4,"leechers":0,"uploader":"yfjfrj","files":17,"time":1425945975,"description":" &lt;a href=&quot;http://ia.media-imdb.com/images/M/MV5BMTIzMDkwMTczMl5BMl5BanBnXkFtZTcwODk1MzI0MQ@@._V1_SY317_CR10,0,214,317_AL_.jpg&quot; rel=&quot;nofollow&quot; target=&quot;_NEW&quot;&gt;http://ia.media-imdb.com/images/M/MV5BMTIzMDkwMTczMl5BMl5BanBnXkFtZTcwODk1MzI0MQ@@._V1_SY317_CR10,0,214,317_AL_.jpg&lt;/a&gt;\n\nA hostess entertains by telling funny and sexy tales.\n\nMI:\nGeneral\nFormat                                   : MPEG-PS\nFile size                                : 1 024 MiB\nDuration                                 : 25mn 59s\nOverall bit rate mode                    : Variable\nOverall bit rate                         : 5 507 Kbps\n\nVideo\nID                                       : 224 (0xE0)\nFormat                                   : MPEG Video\nFormat version                           : Version 2\nFormat profile                           : Main@Main\nFormat settings, BVOP                    : Yes\nFormat settings, Matrix                  : Custom\nFormat settings, GOP                     : M=3, N=3\nFormat settings, picture structure       : Frame\nDuration                                 : 25mn 59s\nBit rate mode                            : Variable\nBit rate                                 : 4 821 Kbps\nMaximum bit rate                         : 6 800 Kbps\nWidth                                    : 704 pixels\nHeight                                   : 576 pixels\nDisplay aspect ratio                     : 4:3\nFrame rate                               : 25.000 fps\nStandard                                 : PAL\nColor space                              : YUV\nChroma subsampling                       : 4:2:0\nBit depth                                : 8 bits\nScan type                                : Interlaced\nScan order                               : Top Field First\nCompression mode                         : Lossy\nBits/(Pixel*Frame)                       : 0.476\nTime code of first frame                 : 00:00:04:20\nTime code source                         : Group of pictures header\nGOP, Open/Closed                         : Open\nStream size                              : 897 MiB (88%)\n\nAudio #1\nID                                       : 189 (0xBD)-128 (0x80)\nFormat                                   : AC-3\nFormat/Info                              : Audio Coding 3\nMode extension                           : CM (complete main)\nFormat settings, Endianness              : Big\nMuxing mode                              : DVD-Video\nDuration                                 : 25mn 59s\nBit rate mode                            : Constant\nBit rate                                 : 192 Kbps\nChannel(s)                               : 2 channels\nChannel positions                        : Front: L R\nSampling rate                            : 48.0 KHz\nBit depth                                : 16 bits\nCompression mode                         : Lossy\nDelay relative to video                  : -80ms\nStream size                              : 35.7 MiB (3%)\n\nAudio #2\nID                                       : 189 (0xBD)-129 (0x81)\nFormat                                   : AC-3\nFormat/Info                              : Audio Coding 3\nMode extension                           : CM (complete main)\nFormat settings, Endianness              : Big\nMuxing mode                              : DVD-Video\nDuration                                 : 25mn 59s\nBit rate mode                            : Constant\nBit rate                                 : 128 Kbps\nChannel(s)                               : 2 channels\nChannel positions                        : Front: L R\nSampling rate                            : 48.0 KHz\nBit depth                                : 16 bits\nCompression mode                         : Lossy\nDelay relative to video                  : -80ms\nStream size                              : 23.8 MiB (2%)\n\nAudio #3\nID                                       : 189 (0xBD)-130 (0x82)\nFormat                                   : AC-3\nFormat/Info                              : Audio Coding 3\nMode extension                           : CM (complete main)\nFormat settings, Endianness              : Big\nMuxing mode                              : DVD-Video\nDuration                                 : 25mn 59s\nBit rate mode                            : Constant\nBit rate                                 : 128 Kbps\nChannel(s)                               : 2 channels\nChannel positions                        : Front: L R\nSampling rate                            : 48.0 KHz\nBit depth                                : 16 bits\nCompression mode                         : Lossy\nDelay relative to video                  : -80ms\nStream size                              : 23.8 MiB (2%)\n\nAudio #4\nID                                       : 189 (0xBD)-131 (0x83)\nFormat                                   : AC-3\nFormat/Info                              : Audio Coding 3\nMode extension                           : CM (complete main)\nFormat settings, Endianness              : Big\nMuxing mode                              : DVD-Video\nDuration                                 : 25mn 59s\nBit rate mode                            : Constant\nBit rate                                 : 128 Kbps\nChannel(s)                               : 2 channels\nChannel positions                        : Front: L R\nSampling rate                            : 48.0 KHz\nBit depth                                : 16 bits\nCompression mode                         : Lossy\nDelay relative to video                  : -80ms\nStream size                              : 23.8 MiB (2%)\n\nMenu\n\n\nDVDInfo:\nTitle: Die Betthostessen_1972\nSize: 2.95 Gb ( 3Â 094Â 032,00 KBytes ) - DVD-5\nEnabled regions: 1, 2, 3, 4, 5, 6, 7, 8\n\nVTS_01 :\n  Play Length: 01:16:27\n  Video: PAL 4:3 (704x576) VBR\n  Audio:\n      Russian (Dolby AC3, 2 ch)\n      Not specified (Dolby AC3, 2 ch)\n      Not specified (Dolby AC3, 2 ch)\n      Not specified (Dolby AC3, 2 ch)\n\nVTS_02 :\n  Play Length: 00:00:05\n  Video: PAL 4:3 (720x576) VBR\n\nVTS_03 :\n  Play Length: 00:00:06\n  Video: PAL 16:9 (720x576) VBR, Auto Letterboxed\n\n\n\nScreens: &lt;a href=&quot;\nhttp://i2.imageban.ru/out/2015/03/10/42ff5950fe9a4320737bf2c9710090f7.jpg&quot; rel=&quot;nofollow&quot; target=&quot;_NEW&quot;&gt;\nhttp://i2.imageban.ru/out/2015/03/10/42ff5950fe9a4320737bf2c9710090f7.jpg&lt;/a&gt; &lt;a href=&quot;\nhttp://i1.imageban.ru/out/2015/03/10/b05907e6ccbc7185702c16e511dbb4c7.jpg&quot; rel=&quot;nofollow&quot; target=&quot;_NEW&quot;&gt;\nhttp://i1.imageban.ru/out/2015/03/10/b05907e6ccbc7185702c16e511dbb4c7.jpg&lt;/a&gt; &lt;a href=&quot;\nhttp://i2.imageban.ru/out/2015/03/10/490d9d04d5b4d46b40556a5a22006d00.jpg&quot; rel=&quot;nofollow&quot; target=&quot;_NEW&quot;&gt;\nhttp://i2.imageban.ru/out/2015/03/10/490d9d04d5b4d46b40556a5a22006d00.jpg&lt;/a&gt; &lt;a href=&quot;\nhttp://i4.imageban.ru/out/2015/03/10/fc9a1fc43baad96b5cdbfca90844498f.jpg&quot; rel=&quot;nofollow&quot; target=&quot;_NEW&quot;&gt;\nhttp://i4.imageban.ru/out/2015/03/10/fc9a1fc43baad96b5cdbfca90844498f.jpg&lt;/a&gt;","torrent":{"xt":"urn:btih:68a332b981a82441668a66fe0ab888ea871d4564","amp;dn":"Die+Bett-Hostessen+%281973%29+DVD5+PAL+","amp;tr":["udp%3A%2F%2Ftracker.openbittorrent.com%3A80","udp%3A%2F%2Fopen.demonii.com%3A1337","udp%3A%2F%2Ftracker.coppersurfer.tk%3A6969","udp%3A%2F%2Fexodus.desync.com%3A6969"],"infoHash":"68a332b981a82441668a66fe0ab888ea871d4564","infoHashBuffer":{"type":"Buffer","data":[104,163,50,185,129,168,36,65,102,138,102,254,10,184,136,234,135,29,69,100]},"announce":[],"urlList":[]}}